<svg width="16" height="16" viewBox="0 0 16 16" fill="none" xmlns="http://www.w3.org/2000/svg">
<path d="M8.80658 8L11.8259 4.98073C11.8803 4.92811 11.9238 4.86516 11.9537 4.79557C11.9836 4.72598 11.9993 4.65112 12 4.57538C12.0006 4.49964 11.9862 4.42453 11.9575 4.35443C11.9288 4.28432 11.8865 4.22063 11.8329 4.16707C11.7794 4.11352 11.7157 4.07116 11.6456 4.04248C11.5755 4.0138 11.5004 3.99936 11.4246 4.00002C11.3489 4.00068 11.274 4.01642 11.2044 4.04631C11.1348 4.07621 11.0719 4.11966 11.0193 4.17414L8 7.19342L4.98073 4.17414C4.87314 4.07024 4.72905 4.01274 4.57949 4.01404C4.42993 4.01534 4.28686 4.07533 4.18109 4.18109C4.07533 4.28686 4.01534 4.42993 4.01404 4.57949C4.01274 4.72905 4.07024 4.87314 4.17414 4.98073L7.19342 8L4.17414 11.0193C4.11966 11.0719 4.07621 11.1348 4.04631 11.2044C4.01642 11.274 4.00068 11.3489 4.00002 11.4246C3.99936 11.5004 4.0138 11.5755 4.04248 11.6456C4.07116 11.7157 4.11352 11.7794 4.16707 11.8329C4.22063 11.8865 4.28432 11.9288 4.35443 11.9575C4.42453 11.9862 4.49964 12.0006 4.57538 12C4.65112 11.9993 4.72598 11.9836 4.79557 11.9537C4.86516 11.9238 4.92811 11.8803 4.98073 11.8259L8 8.80658L11.0193 11.8259C11.1269 11.9298 11.2709 11.9873 11.4205 11.986C11.5701 11.9847 11.7131 11.9247 11.8189 11.8189C11.9247 11.7131 11.9847 11.5701 11.986 11.4205C11.9873 11.2709 11.9298 11.1269 11.8259 11.0193L8.80658 8Z" fill="#8692AA"/>
</svg>
