<svg width="16" height="16" viewBox="0 0 16 16" fill="none" xmlns="http://www.w3.org/2000/svg">
<path d="M8 13C7.0111 13 6.0444 12.7068 5.22215 12.1573C4.3999 11.6079 3.75904 10.827 3.3806 9.91342C3.00217 8.99979 2.90315 7.99445 3.09608 7.02455C3.289 6.05465 3.76521 5.16373 4.46447 4.46447C5.16373 3.76521 6.05465 3.289 7.02455 3.09608C7.99445 2.90315 8.99979 3.00217 9.91342 3.3806C10.827 3.75904 11.6079 4.3999 12.1573 5.22215C12.7068 6.0444 13 7.0111 13 8C12.9985 9.32564 12.4713 10.5966 11.5339 11.5339C10.5966 12.4713 9.32564 12.9985 8 13ZM8 4C7.20888 4 6.43552 4.2346 5.77772 4.67412C5.11992 5.11365 4.60723 5.73836 4.30448 6.46927C4.00173 7.20017 3.92252 8.00444 4.07686 8.78036C4.2312 9.55629 4.61216 10.269 5.17157 10.8284C5.73098 11.3878 6.44372 11.7688 7.21964 11.9231C7.99556 12.0775 8.79983 11.9983 9.53073 11.6955C10.2616 11.3928 10.8864 10.8801 11.3259 10.2223C11.7654 9.56449 12 8.79113 12 8C11.9988 6.9395 11.577 5.92278 10.8271 5.17289C10.0772 4.423 9.0605 4.00119 8 4Z" fill="#8692AA"/>
</svg>
