<svg width="16" height="16" viewBox="0 0 16 16" fill="none" xmlns="http://www.w3.org/2000/svg">
<path d="M8.2 15.4C6.77598 15.4 5.38393 14.9777 4.1999 14.1866C3.01586 13.3954 2.09302 12.2709 1.54807 10.9553C1.00312 9.63969 0.860536 8.19201 1.13835 6.79535C1.41616 5.39869 2.1019 4.11577 3.10883 3.10883C4.11577 2.1019 5.39869 1.41616 6.79535 1.13835C8.19201 0.860536 9.63969 1.00312 10.9553 1.54807C12.2709 2.09302 13.3954 3.01586 14.1866 4.1999C14.9777 5.38393 15.4 6.77598 15.4 8.2C15.3979 10.1089 14.6387 11.939 13.2889 13.2889C11.939 14.6387 10.1089 15.3979 8.2 15.4ZM8.2 2.44C7.06078 2.44 5.94714 2.77782 4.99992 3.41074C4.05269 4.04365 3.31442 4.94324 2.87846 5.99575C2.4425 7.04825 2.32843 8.20639 2.55068 9.32372C2.77293 10.4411 3.32152 11.4674 4.12707 12.2729C4.93262 13.0785 5.95895 13.6271 7.07628 13.8493C8.19361 14.0716 9.35176 13.9575 10.4043 13.5215C11.4568 13.0856 12.3563 12.3473 12.9893 11.4001C13.6222 10.4529 13.96 9.33922 13.96 8.2C13.9583 6.67288 13.3509 5.2088 12.271 4.12896C11.1912 3.04912 9.72712 2.44172 8.2 2.44Z" fill="#EF4444"/>
<path d="M5.70312 8.20312H10.7031" stroke="#EF4444" stroke-width="1.2" stroke-linecap="round"/>
</svg>
