<svg width="16" height="16" viewBox="0 0 16 16" fill="none" xmlns="http://www.w3.org/2000/svg">
<g clip-path="url(#clip0_8394_10779)">
<path d="M8 12.5H2.63479C1.95197 12.5 1.39844 11.7752 1.39844 10.881L1.39844 4.11136C1.39844 3.42854 1.95197 2.875 2.63479 2.875H13.3499C14.0327 2.875 14.5862 3.42854 14.5862 4.11136V7" stroke="#8692AA" stroke-width="1.2" stroke-linecap="round" stroke-linejoin="round"/>
<path d="M9.34838 10.3821C9.04254 10.3821 8.77494 10.18 8.69302 9.89064L8.24519 8.34547L7.79735 9.89064C7.71543 10.1855 7.44783 10.3821 7.142 10.3821C6.83616 10.3821 6.56854 10.1746 6.48662 9.87973L5.43803 6.05227C5.33973 5.68645 5.55274 5.31518 5.91319 5.21144C6.2791 5.11316 6.65046 5.32609 6.75423 5.69191L7.16383 7.18249L7.59528 5.69737C7.6772 5.40253 7.94482 5.20598 8.25065 5.20598C8.55649 5.20598 8.82409 5.40799 8.90601 5.69737L9.33746 7.18796L9.74707 5.69737C9.84537 5.33155 10.2222 5.12407 10.5881 5.21689C10.954 5.31517 11.167 5.69191 11.0633 6.05773L10.0147 9.88519C9.93275 10.18 9.66515 10.3875 9.35931 10.3875L9.34838 10.3821Z" fill="#8692AA"/>
<path d="M10.7338 8.4275H9.85455C9.47771 8.4275 9.17188 8.12174 9.17188 7.745C9.17188 7.36826 9.47771 7.0625 9.85455 7.0625H10.7338C11.1107 7.0625 11.4165 7.36826 11.4165 7.745C11.4165 8.12174 11.1107 8.4275 10.7338 8.4275Z" fill="#8692AA"/>
<path d="M6.49407 8.4275H5.67486C5.29802 8.4275 4.99219 8.12174 4.99219 7.745C4.99219 7.36826 5.29802 7.0625 5.67486 7.0625H6.49407C6.8709 7.0625 7.17674 7.36826 7.17674 7.745C7.17674 8.12174 6.8709 8.4275 6.49407 8.4275Z" fill="#8692AA"/>
<path d="M15 13L13.5 11.5L12 10" stroke="#8692AA" stroke-width="1.2" stroke-linecap="round" stroke-linejoin="round"/>
<path d="M12 13L15 10" stroke="#8692AA" stroke-width="1.2" stroke-linecap="round" stroke-linejoin="round"/>
</g>
<defs>
<clipPath id="clip0_8394_10779">
<rect width="16" height="16" fill="white"/>
</clipPath>
</defs>
</svg>
