<svg width="16" height="16" viewBox="0 0 16 16" fill="none" xmlns="http://www.w3.org/2000/svg">
<g clip-path="url(#clip0_8394_10868)">
<path d="M11.5606 3.7992L12.3079 3.3683C12.6625 3.16648 13.1097 3.28648 13.317 3.63557L14.4079 5.5283C14.6097 5.88284 14.4897 6.33012 14.1352 6.53739L13.3879 6.96831L13.3988 9.19375L14.1461 9.62467C14.5006 9.82649 14.6206 10.2792 14.4188 10.6283L13.3279 12.521C13.1261 12.8701 12.6734 12.9956 12.3188 12.7883L11.5661 12.3574L9.64064 13.481V14.3483C9.64064 14.7519 9.31336 15.0847 8.90427 15.0847H6.72245C6.31336 15.0847 5.9861 14.7519 5.9861 14.3483V13.481L4.05519 12.3737L3.30246 12.8047C2.94791 13.0065 2.50064 12.8865 2.29882 12.5374L1.20791 10.6501C1.0061 10.2956 1.12609 9.8483 1.47518 9.64103L2.22245 9.21012L2.21155 6.98467L1.46428 6.55376C1.10973 6.35194 0.989733 5.89921 1.19155 5.55012L2.28246 3.66284C2.48428 3.30829 2.93701 3.18829 3.29155 3.39011L4.03882 3.82102L5.96428 2.69739V1.83012C5.96428 1.42103 6.29701 1.09375 6.70065 1.09375H8.88246C9.29155 1.09375 9.61881 1.42103 9.61881 1.83012V2.69739L11.5497 3.7992H11.5606Z" stroke="#8692AA" stroke-width="1.2" stroke-linecap="round" stroke-linejoin="round"/>
<path d="M5.55457 8.33701L7.10885 9.89129L10.5 6.5" stroke="#8692AA" stroke-width="1.2" stroke-linecap="round" stroke-linejoin="round"/>
</g>
<defs>
<clipPath id="clip0_8394_10868">
<rect width="16" height="16" fill="white"/>
</clipPath>
</defs>
</svg>
