<svg width="16" height="16" viewBox="0 0 16 16" fill="none" xmlns="http://www.w3.org/2000/svg">
<path d="M8 2V5.69231" stroke="#8692AA" stroke-width="1.2" stroke-linecap="round" stroke-linejoin="round"/>
<path d="M2 5.6875H14V13.0721C14 13.3169 13.9027 13.5517 13.7296 13.7248C13.5566 13.8979 13.3217 13.9952 13.0769 13.9952H2.92308C2.67826 13.9952 2.44347 13.8979 2.27036 13.7248C2.09725 13.5517 2 13.3169 2 13.0721V5.6875Z" stroke="#8692AA" stroke-width="1.2" stroke-linecap="round" stroke-linejoin="round"/>
<path d="M2 5.69231L3.38462 3.02462C3.53389 2.72394 3.76231 2.46966 4.04532 2.28912C4.32832 2.10858 4.65519 2.00863 4.99077 2H11.0092C11.3527 2.00018 11.6893 2.09617 11.9812 2.27718C12.2731 2.45819 12.5087 2.71704 12.6615 3.02462L14 5.69231" stroke="#8692AA" stroke-width="1.2" stroke-linecap="round" stroke-linejoin="round"/>
<path d="M8 7.72656V11.9837" stroke="#8692AA" stroke-width="1.2" stroke-linecap="round" stroke-linejoin="round"/>
<path d="M9.61396 10.3984L7.99838 12.014L6.38281 10.3984" stroke="#8692AA" stroke-width="1.2" stroke-linecap="round" stroke-linejoin="round"/>
</svg>
