<svg width="16" height="16" viewBox="0 0 16 16" fill="none" xmlns="http://www.w3.org/2000/svg">
<path d="M6.90346 11.7008L8.91557 13.7036C9.03902 13.8301 9.19338 13.9222 9.36336 13.9708C9.53333 14.0194 9.71305 14.0227 9.88471 13.9805C10.0575 13.9403 10.217 13.8565 10.3479 13.7368C10.4788 13.6172 10.5768 13.4659 10.6323 13.2975L13.9366 3.39385C14.0056 3.20829 14.0198 3.00683 13.9776 2.81341C13.9354 2.61999 13.8386 2.44276 13.6986 2.30278C13.5587 2.1628 13.3814 2.06595 13.188 2.02376C12.9946 1.98156 12.7931 1.99579 12.6076 2.06475L2.70386 5.36905C2.52965 5.42855 2.37448 5.53351 2.25441 5.67305C2.13433 5.8126 2.0537 5.98168 2.02085 6.16282C1.98694 6.32756 1.99449 6.49815 2.04282 6.65926C2.09115 6.82036 2.17875 6.96694 2.29775 7.08581L4.82673 9.6148L4.74366 12.8176L6.90346 11.7008Z" stroke="#8692AA" stroke-width="1.2" stroke-linecap="round" stroke-linejoin="round"/>
<path d="M13.6427 2.26562L4.82812 9.61261" stroke="#8692AA" stroke-width="1.2" stroke-linecap="round" stroke-linejoin="round"/>
</svg>
