<svg width="16" height="16" viewBox="0 0 16 16" fill="none" xmlns="http://www.w3.org/2000/svg">
<path d="M5.34635 10.5227H3.47879C2.29533 10.5227 1.33594 9.70564 1.33594 8.50762C1.33594 7.3096 2.29533 6.33841 3.47879 6.33841C3.55927 6.33841 3.63872 6.3429 3.71689 6.35165V6.33841H3.74636C3.72691 6.1805 3.71689 6.01962 3.71689 5.85637C3.71689 3.72655 5.42247 2 7.52641 2C8.95114 2 10.1932 2.79173 10.8467 3.96428C11.0064 3.9405 11.1697 3.92818 11.3359 3.92818C13.1769 3.92818 14.6693 5.43892 14.6693 7.3025C14.6693 9.00242 13.4275 10.2546 11.8121 10.4885H10.0859" stroke="#8692AA" stroke-width="1.2" stroke-linecap="round" stroke-linejoin="round"/>
<path d="M7.90531 12.6646V6.46875M9.875 8.33126L7.90531 6.46875L5.9375 8.33126" stroke="#8692AA" stroke-width="1.2" stroke-linecap="round" stroke-linejoin="round"/>
</svg>
