<svg width="16" height="16" viewBox="0 0 16 16" fill="none" xmlns="http://www.w3.org/2000/svg">
<g clip-path="url(#clip0_8394_10780)">
<path d="M7.625 7.2875C7.625 7.02977 7.83393 6.82083 8.09167 6.82083C8.3494 6.82083 8.55833 7.02977 8.55833 7.2875L8.55833 8.22083C8.55833 8.47857 8.3494 8.6875 8.09167 8.6875C7.83393 8.6875 7.625 8.47857 7.625 8.22083L7.625 7.2875Z" fill="#8692AA"/>
<path d="M8.65125 5.20062C8.65125 5.5099 8.40053 5.76062 8.09125 5.76062C7.78197 5.76062 7.53125 5.5099 7.53125 5.20062C7.53125 4.89135 7.78197 4.64062 8.09125 4.64062C8.40053 4.64062 8.65125 4.89135 8.65125 5.20062Z" fill="#8692AA"/>
<path d="M4.08094 9.6225C4.08094 9.93178 3.83022 10.1825 3.52094 10.1825C3.21166 10.1825 2.96094 9.93178 2.96094 9.6225C2.96094 9.31322 3.21166 9.0625 3.52094 9.0625C3.83022 9.0625 4.08094 9.31322 4.08094 9.6225Z" fill="#8692AA"/>
<path d="M5.47937 6.73206C5.47937 7.04134 5.22865 7.29206 4.91937 7.29206C4.6101 7.29206 4.35938 7.04134 4.35938 6.73206C4.35938 6.42278 4.6101 6.17206 4.91937 6.17206C5.22865 6.17206 5.47937 6.42278 5.47937 6.73206Z" fill="#8692AA"/>
<path d="M13.8954 10.2712C13.8954 6.88932 11.2557 4.1474 8 4.1474C4.74426 4.1474 2.1046 6.88932 2.1046 10.2712V11.185H13.8954V10.2712ZM15 11.7596C15 11.9119 14.9417 12.0575 14.8381 12.1651C14.7344 12.2728 14.5943 12.3333 14.4477 12.3333H1.5523C1.24711 12.3333 1.00005 12.0766 1 11.7596V10.2712C1 6.25522 4.13381 3 8 3C11.8662 3 15 6.25522 15 10.2712V11.7596Z" fill="#8692AA"/>
<path d="M8.65594 9.43906C8.65583 9.12983 8.40457 8.87948 8.09531 8.87948C7.78615 8.8796 7.53585 9.1299 7.53573 9.43906C7.53573 9.74832 7.78608 9.99958 8.09531 9.99969V10.8391C7.32209 10.8389 6.69531 10.2123 6.69531 9.43906C6.69543 8.66591 7.32216 8.03918 8.09531 8.03906C8.86856 8.03906 9.4952 8.66584 9.49531 9.43906C9.49531 10.2124 8.86863 10.8391 8.09531 10.8391V9.99969C8.40464 9.99969 8.65594 9.74839 8.65594 9.43906Z" fill="#8692AA"/>
<path d="M11.8153 6.71625C11.8153 7.02553 11.5646 7.27625 11.2553 7.27625C10.946 7.27625 10.6953 7.02553 10.6953 6.71625C10.6953 6.40697 10.946 6.15625 11.2553 6.15625C11.5646 6.15625 11.8153 6.40697 11.8153 6.71625Z" fill="#8692AA"/>
<path d="M13.2294 9.6225C13.2294 9.93178 12.9787 10.1825 12.6694 10.1825C12.3601 10.1825 12.1094 9.93178 12.1094 9.6225C12.1094 9.31322 12.3601 9.0625 12.6694 9.0625C12.9787 9.0625 13.2294 9.31322 13.2294 9.6225Z" fill="#8692AA"/>
</g>
<defs>
<clipPath id="clip0_8394_10780">
<rect width="16" height="16" fill="white"/>
</clipPath>
</defs>
</svg>
