<svg width="16" height="16" viewBox="0 0 16 16" fill="none" xmlns="http://www.w3.org/2000/svg">
<path d="M12 11.3333C12.6212 11.3333 12.9319 11.3333 13.1769 11.2318C13.5036 11.0964 13.7631 10.8368 13.8984 10.5101C13.9999 10.2651 14 9.95472 14 9.33346V6.79794C14 6.05266 14 5.67947 13.8548 5.39453C13.727 5.14365 13.5225 4.93982 13.2716 4.81199C13.0039 4.67558 12.6589 4.66721 12 4.6667M12 4.6667C11.957 4.66667 11.9126 4.66667 11.8668 4.66667H4.13346C4.08759 4.66667 4.04312 4.66667 4 4.6667M12 4.6667L4 4.6667M12 4.6667V4.13127C12 3.386 12 3.0128 11.8548 2.72786C11.727 2.47698 11.5225 2.27316 11.2716 2.14532C10.9864 2 10.6135 2 9.8668 2H6.13346C5.38673 2 5.01308 2 4.72786 2.14532C4.47698 2.27316 4.27316 2.47698 4.14532 2.72786C4 3.01308 4 3.38673 4 4.13346V4.6667M4 4.6667C3.34115 4.66722 2.99556 4.67559 2.72786 4.81199C2.47698 4.93982 2.27316 5.14365 2.14532 5.39453C2 5.67975 2 6.05339 2 6.80013V9.33346C2 9.95472 2 10.2651 2.10149 10.5101C2.23682 10.8368 2.49621 11.0964 2.82292 11.2318C3.06794 11.3333 3.37857 11.3333 3.99983 11.3333M6.66667 7.33333H9.33333M6 10H10C10.6213 10 10.9319 10 11.1769 10.1015C11.5036 10.2368 11.7631 10.4962 11.8984 10.8229C11.9999 11.0679 11.9999 11.3787 11.9999 12C11.9999 12.6213 11.9999 12.9319 11.8984 13.1769C11.7631 13.5036 11.5036 13.7631 11.1769 13.8984C10.9319 13.9999 10.6213 14 10 14H6C5.37875 14 5.06794 13.9999 4.82292 13.8984C4.49621 13.7631 4.23682 13.5038 4.10149 13.1771C4 12.9321 4 12.6211 4 11.9998C4 11.3786 4 11.0679 4.10149 10.8229C4.23682 10.4962 4.49621 10.2368 4.82292 10.1015C5.06794 10 5.37874 10 6 10Z" stroke="#8692AA" stroke-width="1.2" stroke-linecap="round" stroke-linejoin="round"/>
</svg>
