<svg width="16" height="16" viewBox="0 0 16 16" fill="none" xmlns="http://www.w3.org/2000/svg">
<path d="M7.99822 4.7C8.60573 4.7 9.09822 4.20751 9.09822 3.6C9.09822 2.99249 8.60573 2.5 7.99822 2.5C7.39071 2.5 6.89822 2.99249 6.89822 3.6C6.89822 4.20751 7.39071 4.7 7.99822 4.7Z" fill="#8692AA"/>
<path d="M7.99844 9.09844C8.60595 9.09844 9.09844 8.60595 9.09844 7.99844C9.09844 7.39093 8.60595 6.89844 7.99844 6.89844C7.39093 6.89844 6.89844 7.39093 6.89844 7.99844C6.89844 8.60595 7.39093 9.09844 7.99844 9.09844Z" fill="#8692AA"/>
<path d="M7.99844 13.4969C8.60595 13.4969 9.09844 13.0043 9.09844 12.3969C9.09844 11.7895 8.60595 11.2969 7.99844 11.2969C7.39093 11.2969 6.89844 11.7895 6.89844 12.3969C6.89844 13.0043 7.39093 13.4969 7.99844 13.4969Z" fill="#8692AA"/>
</svg>
