<svg width="16" height="16" viewBox="0 0 16 16" fill="none" xmlns="http://www.w3.org/2000/svg">
<path d="M7.99512 3.23064C4.9043 3.25364 2.27905 5.19578 1.22982 7.91749C2.31944 10.6233 4.97332 12.5261 8.06414 12.5031C11.155 12.4801 13.7802 10.538 14.8294 7.81626C13.7398 5.11048 11.0859 3.20763 7.99512 3.23064ZM8.05264 10.9577C6.3465 10.9704 4.95151 9.59601 4.93881 7.88988C4.92611 6.18374 6.30049 4.78875 8.00663 4.77605C9.71276 4.76335 11.1078 6.13773 11.1205 7.84387C11.1332 9.55 9.75877 10.945 8.05264 10.9577ZM8.01583 6.01238C6.98968 6.02002 6.1675 6.85452 6.17514 7.88068C6.18278 8.90683 7.01728 9.729 8.04344 9.72137C9.06959 9.71373 9.89176 8.87922 9.88413 7.85307C9.87649 6.82692 9.04198 6.00474 8.01583 6.01238Z" fill="#8692AA"/>
</svg>
