<svg width="16" height="16" viewBox="0 0 16 16" fill="none" xmlns="http://www.w3.org/2000/svg">
<path d="M5.80025 12.5H10.6003M5.80025 10.5H10.6003M4.60006 2H11.8002C12.6839 2 13.4002 2.71636 13.4002 3.60003L13.4 13.2C13.4 14.0837 12.6837 14.8 11.8 14.8L4.59999 14.8C3.71634 14.8 2.99999 14.0836 3 13.2L3.00006 3.59999C3.00007 2.71634 3.71641 2 4.60006 2Z" stroke="#8692AA" stroke-width="1.2" stroke-linecap="round" stroke-linejoin="round"/>
<path d="M4.5 4.5H5.65M6.8 4.5H5.65M5.65 4.5V8.5M11.7531 4.5L10.0031 8.5M10.0031 4.5L11.7531 8.5M7 8.5L7.15379 7.88485M9 8.5L8.84621 7.88485M7.15379 7.88485L8 4.5L8.84621 7.88485M7.15379 7.88485H8.84621" stroke="#8692AA" stroke-width="1.00513" stroke-linecap="round" stroke-linejoin="round"/>
</svg>
