<svg width="16" height="16" viewBox="0 0 16 16" fill="none" xmlns="http://www.w3.org/2000/svg">
<mask id="mask0_8394_10829" style="mask-type:alpha" maskUnits="userSpaceOnUse" x="0" y="0" width="16" height="16">
<rect width="16" height="16" fill="#D9D9D9"/>
</mask>
<g mask="url(#mask0_8394_10829)">
<path d="M7.6026 10.6641L9.33594 8.93073L11.0693 10.6641L12.0026 9.73073L10.2693 7.9974L12.0026 6.26406L11.0693 5.33073L9.33594 7.06406L7.6026 5.33073L6.66927 6.26406L8.4026 7.9974L6.66927 9.73073L7.6026 10.6641ZM6.0026 13.3307C5.79149 13.3307 5.59149 13.2835 5.4026 13.1891C5.21372 13.0946 5.05816 12.9641 4.93594 12.7974L1.33594 7.9974L4.93594 3.1974C5.05816 3.03073 5.21372 2.90017 5.4026 2.80573C5.59149 2.71128 5.79149 2.66406 6.0026 2.66406H13.3359C13.7026 2.66406 14.0165 2.79462 14.2776 3.05573C14.5387 3.31684 14.6693 3.63073 14.6693 3.9974V11.9974C14.6693 12.3641 14.5387 12.678 14.2776 12.9391C14.0165 13.2002 13.7026 13.3307 13.3359 13.3307H6.0026Z" fill="#8692AA"/>
</g>
</svg>
