<svg width="16" height="16" viewBox="0 0 16 16" fill="none" xmlns="http://www.w3.org/2000/svg">
<path d="M7.40153 2.5384H3.61054C2.35431 2.5384 1.33594 3.55674 1.33594 4.81292V12.3947C1.33594 13.6509 2.35431 14.6693 3.61054 14.6693H11.1925C12.4488 14.6693 13.4671 13.6509 13.4671 12.3947L13.4671 8.60383M5.12693 10.8783L7.88551 10.3225C8.03195 10.293 8.16641 10.2209 8.27202 10.1152L14.4473 3.93671C14.7434 3.64049 14.7432 3.16032 14.4469 2.86434L13.1387 1.5577C12.8425 1.26184 12.3626 1.26204 12.0666 1.55815L5.89067 7.73731C5.78527 7.84276 5.7133 7.97695 5.68377 8.12309L5.12693 10.8783Z" stroke="#8692AA" stroke-width="1.2" stroke-linecap="round" stroke-linejoin="round"/>
</svg>
