<svg width="16" height="16" viewBox="0 0 16 16" fill="none" xmlns="http://www.w3.org/2000/svg">
<path d="M3.31543 8.96387H12.6846C13.0977 8.96387 13.4461 9.30564 13.4463 9.74316V12.667C13.4461 13.1046 13.0977 13.4463 12.6846 13.4463H3.31543C2.9023 13.4463 2.55388 13.1046 2.55371 12.667V9.74316C2.55394 9.30564 2.90233 8.96387 3.31543 8.96387ZM3.31543 2.55371H12.6846C13.0977 2.55371 13.4461 2.89544 13.4463 3.33301V6.25684C13.4461 6.69436 13.0977 7.03613 12.6846 7.03613H3.31543C2.90233 7.03613 2.55394 6.69436 2.55371 6.25684V3.33301C2.55388 2.89544 2.9023 2.55371 3.31543 2.55371Z" stroke="#8692AA" stroke-width="1.10769" stroke-linecap="round" stroke-linejoin="round"/>
<path d="M8 9.38281L8 13.0751" stroke="#8692AA" stroke-width="1.10769"/>
</svg>
