<svg width="16" height="16" viewBox="0 0 16 16" fill="none" xmlns="http://www.w3.org/2000/svg">
<mask id="mask0_8394_10846" style="mask-type:alpha" maskUnits="userSpaceOnUse" x="0" y="0" width="16" height="16">
<rect width="16" height="16" fill="#D9D9D9"/>
</mask>
<g mask="url(#mask0_8394_10846)">
<path d="M2.66146 13.3385C2.29479 13.3385 1.9809 13.208 1.71979 12.9469C1.45868 12.6858 1.32812 12.3719 1.32812 12.0052V4.00521C1.32812 3.63854 1.45868 3.32465 1.71979 3.06354C1.9809 2.80243 2.29479 2.67188 2.66146 2.67188H6.66146L7.99479 4.00521H13.3281C13.6948 4.00521 14.0087 4.13576 14.2698 4.39688C14.5309 4.65799 14.6615 4.97188 14.6615 5.33854V12.0052C14.6615 12.3719 14.5309 12.6858 14.2698 12.9469C14.0087 13.208 13.6948 13.3385 13.3281 13.3385H2.66146ZM2.66146 12.0052H13.3281V5.33854H7.44479L6.11146 4.00521H2.66146V12.0052Z" fill="#3B82F6"/>
<path d="M6.5 3.5L2.5 3L2 12.5H14L13.5 5L8 4.5L6.5 3.5Z" fill="#3B82F6"/>
</g>
</svg>
