<svg width="16" height="16" viewBox="0 0 16 16" fill="none" xmlns="http://www.w3.org/2000/svg">
<path d="M11.6893 1.90667L10.8727 1H4.44133C3.97733 1 3.798 1.344 3.798 1.61267V4.03267H4.7V2.102C4.7 1.99933 4.78667 1.91267 4.88667 1.91267H9.48867C9.59 1.91267 9.64067 1.93067 9.64067 2.014V5.22733H12.916C13.0447 5.22733 13.0947 5.294 13.0947 5.39133V13.238C13.0947 13.402 13.028 13.4267 12.928 13.4267H4.88667C4.83708 13.4255 4.7899 13.405 4.75507 13.3697C4.72025 13.3344 4.7005 13.2869 4.7 13.2373V12.52H3.804V13.65C3.792 14.05 4.00533 14.3333 4.44133 14.3333H13.3733C13.84 14.3333 13.9993 13.9953 13.9993 13.6873V4.458L13.766 4.20467L11.6887 1.90733L11.6893 1.90667ZM10.5573 2.01333L10.8153 2.30267L12.546 4.20467L12.6413 4.32H10.8727C10.7393 4.32 10.6547 4.298 10.6193 4.25333C10.584 4.21 10.5633 4.14 10.5573 4.04467V2.01333ZM9.83067 8.11133H12.882V9.00067H9.83V8.11133H9.83067ZM9.83067 6.334H12.882V7.22267H9.83V6.33333L9.83067 6.334ZM9.83067 9.88933H12.882V10.7787H9.83V9.88933H9.83067ZM2 4.75067V11.862H8.97667V4.75067H2ZM5.48867 8.88667L5.062 9.53867H5.48867V10.3333H3.344L4.9 7.99333L3.52133 5.88933H4.67333L5.48933 7.11333L6.30467 5.88933H7.456L6.07467 7.99333L7.63267 10.3333H6.43733L5.48867 8.88667Z" fill="#8692AA"/>
</svg>
