<svg width="16" height="16" viewBox="0 0 16 16" fill="none" xmlns="http://www.w3.org/2000/svg">
<path d="M2 5.00033L2 11.6034C2 12.4419 2 12.8612 2.16335 13.1818C2.30717 13.464 2.5369 13.6941 2.81918 13.838C3.13977 14.0013 3.55905 14.0013 4.39758 14.0013H11.6034C12.4419 14.0013 12.8618 14.0013 13.1824 13.838C13.4646 13.6941 13.694 13.464 13.8378 13.1818C14.0013 12.8609 14.0013 12.4414 14.0013 11.6012V5.00033V4.40041C14.0013 3.56024 14.0013 3.13984 13.8378 2.81894C13.694 2.53666 13.4646 2.30733 13.1824 2.16351C12.8615 2 12.4411 2 11.6009 2L4.40011 2C3.55994 2 3.14008 2 2.81918 2.16351C2.5369 2.30733 2.30717 2.53666 2.16335 2.81894C2 3.13952 2 3.55941 2 4.39794L2 5.00033ZM14.0013 5.00033L2 5.00033M5.58706 10.6259H10.4626M5.58706 8.00065H7.8373H10.4626" stroke="#8692AA" stroke-width="1.2" stroke-linecap="round" stroke-linejoin="round"/>
</svg>
