<svg width="16" height="16" viewBox="0 0 16 16" fill="none" xmlns="http://www.w3.org/2000/svg">
<g clip-path="url(#clip0_8394_10851)">
<path d="M12.6667 3.33333V12.6667H3.33333V3.33333H12.6667ZM12.6667 2H3.33333C2.6 2 2 2.6 2 3.33333V12.6667C2 13.4 2.6 14 3.33333 14H12.6667C13.4 14 14 13.4 14 12.6667V3.33333C14 2.6 13.4 2 12.6667 2Z" fill="#8692AA"/>
</g>
<path d="M7.04692 10.1583C6.99507 10.1583 6.94645 10.1502 6.90108 10.1338C6.85571 10.1178 6.81358 10.0903 6.77469 10.0514L5.10247 8.37917C5.03118 8.30787 4.99708 8.21544 5.0002 8.10189C5.00357 7.98859 5.0409 7.8963 5.11219 7.825C5.18349 7.7537 5.27423 7.71806 5.38442 7.71806C5.4946 7.71806 5.58534 7.7537 5.65664 7.825L7.04692 9.21528L10.3428 5.91944C10.414 5.84815 10.5065 5.8125 10.62 5.8125C10.7333 5.8125 10.8256 5.84815 10.8969 5.91944C10.9682 5.99074 11.0039 6.08304 11.0039 6.19633C11.0039 6.30989 10.9682 6.40231 10.8969 6.47361L7.31914 10.0514C7.28025 10.0903 7.23812 10.1178 7.19275 10.1338C7.14738 10.1502 7.09877 10.1583 7.04692 10.1583Z" fill="#8692AA" stroke="#8692AA" stroke-width="0.666667"/>
<defs>
<clipPath id="clip0_8394_10851">
<rect width="16" height="16" fill="white"/>
</clipPath>
</defs>
</svg>
