<svg width="16" height="16" viewBox="0 0 16 16" fill="none" xmlns="http://www.w3.org/2000/svg">
<path fill-rule="evenodd" clip-rule="evenodd" d="M4.25 6C4.05109 6 3.86032 6.07902 3.71967 6.21967C3.57902 6.36032 3.5 6.55109 3.5 6.75V13.25C3.5 13.4489 3.57902 13.6397 3.71967 13.7803C3.86032 13.921 4.05109 14 4.25 14H11.75C11.9489 14 12.1397 13.921 12.2803 13.7803C12.421 13.6397 12.5 13.4489 12.5 13.25V6.75C12.5 6.55109 12.421 6.36032 12.2803 6.21967C12.1397 6.07902 11.9489 6 11.75 6H10.5C10.2239 6 10 5.77614 10 5.5C10 5.22386 10.2239 5 10.5 5H11.75C12.2141 5 12.6592 5.18437 12.9874 5.51256C13.3156 5.84075 13.5 6.28587 13.5 6.75V13.25C13.5 13.7141 13.3156 14.1592 12.9874 14.4874C12.6592 14.8156 12.2141 15 11.75 15H4.25C3.78587 15 3.34075 14.8156 3.01256 14.4874C2.68437 14.1592 2.5 13.7141 2.5 13.25V6.75C2.5 6.28587 2.68437 5.84075 3.01256 5.51256C3.34075 5.18437 3.78587 5 4.25 5H5.5C5.77614 5 6 5.22386 6 5.5C6 5.77614 5.77614 6 5.5 6H4.25Z" fill="#8692AA"/>
<path fill-rule="evenodd" clip-rule="evenodd" d="M5.14645 8.14645C5.34171 7.95118 5.65829 7.95118 5.85355 8.14645L8 10.2929L10.1464 8.14645C10.3417 7.95118 10.6583 7.95118 10.8536 8.14645C11.0488 8.34171 11.0488 8.65829 10.8536 8.85355L8.35355 11.3536C8.15829 11.5488 7.84171 11.5488 7.64645 11.3536L5.14645 8.85355C4.95118 8.65829 4.95118 8.34171 5.14645 8.14645Z" fill="#8692AA"/>
<path fill-rule="evenodd" clip-rule="evenodd" d="M8 1C8.27614 1 8.5 1.22386 8.5 1.5V10.5C8.5 10.7761 8.27614 11 8 11C7.72386 11 7.5 10.7761 7.5 10.5V1.5C7.5 1.22386 7.72386 1 8 1Z" fill="#8692AA"/>
<path fill-rule="evenodd" clip-rule="evenodd" d="M4.25 6C4.05109 6 3.86032 6.07902 3.71967 6.21967C3.57902 6.36032 3.5 6.55109 3.5 6.75V13.25C3.5 13.4489 3.57902 13.6397 3.71967 13.7803C3.86032 13.921 4.05109 14 4.25 14H11.75C11.9489 14 12.1397 13.921 12.2803 13.7803C12.421 13.6397 12.5 13.4489 12.5 13.25V6.75C12.5 6.55109 12.421 6.36032 12.2803 6.21967C12.1397 6.07902 11.9489 6 11.75 6H10.5C10.2239 6 10 5.77614 10 5.5C10 5.22386 10.2239 5 10.5 5H11.75C12.2141 5 12.6592 5.18437 12.9874 5.51256C13.3156 5.84075 13.5 6.28587 13.5 6.75V13.25C13.5 13.7141 13.3156 14.1592 12.9874 14.4874C12.6592 14.8156 12.2141 15 11.75 15H4.25C3.78587 15 3.34075 14.8156 3.01256 14.4874C2.68437 14.1592 2.5 13.7141 2.5 13.25V6.75C2.5 6.28587 2.68437 5.84075 3.01256 5.51256C3.34075 5.18437 3.78587 5 4.25 5H5.5C5.77614 5 6 5.22386 6 5.5C6 5.77614 5.77614 6 5.5 6H4.25Z" stroke="#8692AA" stroke-width="0.2" stroke-linecap="round" stroke-linejoin="round"/>
<path fill-rule="evenodd" clip-rule="evenodd" d="M5.14645 8.14645C5.34171 7.95118 5.65829 7.95118 5.85355 8.14645L8 10.2929L10.1464 8.14645C10.3417 7.95118 10.6583 7.95118 10.8536 8.14645C11.0488 8.34171 11.0488 8.65829 10.8536 8.85355L8.35355 11.3536C8.15829 11.5488 7.84171 11.5488 7.64645 11.3536L5.14645 8.85355C4.95118 8.65829 4.95118 8.34171 5.14645 8.14645Z" stroke="#8692AA" stroke-width="0.2" stroke-linecap="round" stroke-linejoin="round"/>
<path fill-rule="evenodd" clip-rule="evenodd" d="M8 1C8.27614 1 8.5 1.22386 8.5 1.5V10.5C8.5 10.7761 8.27614 11 8 11C7.72386 11 7.5 10.7761 7.5 10.5V1.5C7.5 1.22386 7.72386 1 8 1Z" stroke="#8692AA" stroke-width="0.2" stroke-linecap="round" stroke-linejoin="round"/>
</svg>
