<svg width="16" height="16" viewBox="0 0 16 16" fill="none" xmlns="http://www.w3.org/2000/svg">
<path d="M4.86277 11.9895H2.17244C1.87807 11.9895 1.59575 11.8726 1.3876 11.6644C1.17944 11.4563 1.0625 11.174 1.0625 10.8796V3.10994C1.0625 2.81557 1.17944 2.53325 1.3876 2.3251C1.59575 2.11694 1.87807 2 2.17244 2H13.272C13.5663 2 13.8486 2.11694 14.0568 2.3251C14.2649 2.53325 14.3819 2.81557 14.3819 3.10994V6.94491" stroke="#8692AA" stroke-width="1.2" stroke-linecap="round" stroke-linejoin="round"/>
<path d="M1.0625 3.39844L7.72219 8.10462L14.3819 3.39844" stroke="#8692AA" stroke-width="1.2" stroke-linecap="round" stroke-linejoin="round"/>
<path d="M9.92103 11.1614L8.19531 12.8972L10.0027 14.7132M8.19531 12.8972H13.5431C14.2677 12.8972 14.855 12.3098 14.855 11.5853C14.855 10.8608 14.2677 10.2734 13.5431 10.2734H11.7471" stroke="#8692AA" stroke-width="1.2" stroke-linecap="round" stroke-linejoin="round"/>
</svg>
