<svg width="16" height="16" viewBox="0 0 16 16" fill="none" xmlns="http://www.w3.org/2000/svg">
<path d="M6.40267 12.5983H2.8033C1.91966 12.5983 1.20332 11.882 1.2033 10.9984L1.20313 4.99848C1.2031 4.11481 1.91945 3.39844 2.80313 3.39844H12.4028C13.2864 3.39844 14.0028 4.11437 14.0028 4.99805V7.49854M1.60282 6.19834H13.6028M4.40267 8.99837H6.40267M9.72149 13.3077C8.70613 12.2923 8.70613 10.6461 9.72149 9.63072C10.3634 8.98886 11.2573 8.75275 12.0846 8.92239M13.656 9.93021C14.405 10.9476 14.3191 12.387 13.3984 13.3077C12.7361 13.97 11.8054 14.2003 10.9564 13.9985M13.2721 10.4658L13.656 9.63072L14.5 9.97424M9.95114 12.4125V13.3875H8.97614" stroke="#8692AA" stroke-width="1.2" stroke-linecap="round" stroke-linejoin="round"/>
</svg>
