<svg width="16" height="16" viewBox="0 0 16 16" fill="none" xmlns="http://www.w3.org/2000/svg">
<path d="M1.56055 6.89216C1.35171 6.69903 1.46515 6.34991 1.74762 6.31641L5.75 5.84169C5.86512 5.82804 5.96512 5.75575 6.01367 5.65048L7.70182 1.99062C7.82096 1.73233 8.18815 1.73228 8.30729 1.99057L9.99544 5.6504C10.044 5.75567 10.1433 5.82816 10.2585 5.84181L14.2611 6.31641C14.5435 6.34991 14.6567 6.69914 14.4478 6.89226L11.4891 9.62891C11.404 9.70762 11.3661 9.82478 11.3887 9.93849L12.1739 13.8916C12.2293 14.1706 11.9324 14.3868 11.6842 14.2478L8.16734 12.2787C8.06618 12.2221 7.94328 12.2224 7.84212 12.279L4.32487 14.2473C4.07666 14.3863 3.7792 14.1706 3.83464 13.8916L4.62 9.93873C4.64259 9.82503 4.6048 9.7076 4.51969 9.62889L1.56055 6.89216Z" stroke="#8692AA" stroke-width="1.2" stroke-linecap="round" stroke-linejoin="round"/>
</svg>
