<svg width="16" height="16" viewBox="0 0 16 16" fill="none" xmlns="http://www.w3.org/2000/svg">
<g clip-path="url(#clip0_8394_10782)">
<path d="M5.10764 2.69444H4.53C3.72104 2.69444 3.31625 2.69444 3.00727 2.85188C2.73548 2.99036 2.51467 3.21117 2.37619 3.48296C2.21875 3.79195 2.21875 4.19673 2.21875 5.0057V5.58333M5.10764 2.69444H10.8854M5.10764 2.69444V1.25M10.8854 2.69444H11.4633C12.2723 2.69444 12.6762 2.69444 12.9852 2.85188C13.257 2.99036 13.4785 3.21117 13.617 3.48296C13.7743 3.79165 13.7743 4.19594 13.7743 5.00332V5.58333M10.8854 2.69444V1.25M2.21875 5.58333V11.939C2.21875 12.748 2.21875 13.1523 2.37619 13.4612C2.51467 13.733 2.73548 13.9542 3.00727 14.0927C3.31595 14.25 3.72025 14.25 4.52763 14.25H11.4654C12.2728 14.25 12.6765 14.25 12.9852 14.0927C13.257 13.9542 13.4785 13.733 13.617 13.4612C13.7743 13.1526 13.7743 12.7489 13.7743 11.9415V5.58333M2.21875 5.58333H13.7743" stroke="#8692AA" stroke-width="1.15555" stroke-linecap="round" stroke-linejoin="round"/>
<path d="M4.63281 8.47077L5.64804 9.4859L7.52168 7.50781" stroke="#8692AA" stroke-width="1.15555" stroke-linecap="round" stroke-linejoin="round"/>
<path d="M11.3737 12.3268L10.2181 11.1712M10.2181 11.1712L9.0625 10.0156M10.2181 11.1712L9.0625 12.3268M10.2181 11.1712L11.3737 10.0156" stroke="#8692AA" stroke-width="0.938845" stroke-linecap="round" stroke-linejoin="round"/>
</g>
<defs>
<clipPath id="clip0_8394_10782">
<rect width="16" height="16" fill="white"/>
</clipPath>
</defs>
</svg>
