<svg width="16" height="16" viewBox="0 0 16 16" fill="none" xmlns="http://www.w3.org/2000/svg">
<path d="M4.91803 6.79644L3.42906 8.2854C2.87297 8.84149 2.55318 9.59814 2.55903 10.3933C2.56487 11.1886 2.87766 11.9498 3.46014 12.5143C4.02459 13.0968 4.78601 13.4096 5.58109 13.4154C6.39431 13.4214 7.13305 13.1196 7.68917 12.5635L9.17814 11.0745M11.08 9.20905L12.569 7.72008C13.1251 7.16399 13.4449 6.40735 13.439 5.61214C13.4332 4.81693 13.1204 4.05567 12.5379 3.49118C11.9736 2.92686 11.2123 2.61405 10.4171 2.60821C9.62187 2.60236 8.86513 2.904 8.30901 3.4601L6.82004 4.94907M5.74109 10.2209L10.208 5.75394" stroke="#8692AA" stroke-width="1.2" stroke-linecap="round" stroke-linejoin="round"/>
</svg>
