<svg width="16" height="16" viewBox="0 0 16 16" fill="none" xmlns="http://www.w3.org/2000/svg">
<path d="M8.6 14.3937H2.59999C1.71634 14.3937 0.999994 13.6774 1 12.7937L1.00006 3.19374C1.00007 2.31009 1.71641 1.59375 2.60006 1.59375H11.8002C12.6839 1.59375 13.4002 2.31009 13.4002 3.19375V6.39375M14.2 13.1937L15 13.9937M14.6 11.5937C14.6 12.6983 13.7046 13.5937 12.6 13.5937C11.4954 13.5937 10.6 12.6983 10.6 11.5937C10.6 10.4892 11.4954 9.59375 12.6 9.59375C13.7046 9.59375 14.6 10.4892 14.6 11.5937Z" stroke="#8692AA" stroke-width="1.2" stroke-linecap="round" stroke-linejoin="round"/>
<path d="M4.40842 5L6.09238 9.18803L7.34986 5L8.6052 9.18803L10.2804 5M4 6.67521H10.6992" stroke="#8692AA" stroke-width="1.00513" stroke-linecap="round" stroke-linejoin="round"/>
</svg>
