<svg width="16" height="16" viewBox="0 0 16 16" fill="none" xmlns="http://www.w3.org/2000/svg">
<path d="M14.75 11.25C14.75 13.3211 13.0711 15 11 15C8.92893 15 7.25 13.3211 7.25 11.25C7.25 9.17893 8.92893 7.5 11 7.5C13.0711 7.5 14.75 9.17893 14.75 11.25Z" stroke="#8692AA" stroke-width="1.2" stroke-linecap="round" stroke-linejoin="round"/>
<path d="M5.5 12H2.17244C1.87807 12 1.59575 11.8829 1.3876 11.6746C1.17944 11.4662 1.0625 11.1836 1.0625 10.8889V3.11111C1.0625 2.81643 1.17944 2.53381 1.3876 2.32544C1.59575 2.11706 1.87807 2 2.17244 2H13.272C13.5663 2 13.8486 2.11706 14.0568 2.32544C14.2649 2.53381 14.3819 2.81643 14.3819 3.11111V6.5" stroke="#8692AA" stroke-width="1.2" stroke-linecap="round" stroke-linejoin="round"/>
<path d="M1.0625 3L7.72219 6.60156L14.3819 3" stroke="#8692AA" stroke-width="1.2" stroke-linecap="round" stroke-linejoin="round"/>
<path d="M11.1484 10V11.125" stroke="#8692AA" stroke-width="1.2" stroke-linecap="round" stroke-linejoin="round"/>
<path d="M11.1875 12.875C11.0839 12.875 11 12.7911 11 12.6875C11 12.5839 11.0839 12.5 11.1875 12.5" stroke="#8692AA" stroke-width="0.9" stroke-linecap="round" stroke-linejoin="round"/>
<path d="M11.1875 12.875C11.2911 12.875 11.375 12.7911 11.375 12.6875C11.375 12.5839 11.2911 12.5 11.1875 12.5" stroke="#8692AA" stroke-width="0.9" stroke-linecap="round" stroke-linejoin="round"/>
</svg>
