<svg width="16" height="16" viewBox="0 0 16 16" fill="none" xmlns="http://www.w3.org/2000/svg">
<path d="M8.57709 8.45228L6.96169 11.2502M11.5067 2.61068C10.1385 3.4455 7.37121 5.62909 7.24782 7.68483M12.1713 2.99438C12.1628 4.61422 11.7069 8.13233 9.95193 9.24605M1.19531 12.7953L2.88428 12.0523C3.91631 11.5983 5.05343 11.4372 6.17096 11.5867L6.22268 11.5936C7.3574 11.7454 8.42708 12.2114 9.31094 12.9391L10.662 14.0512M4.43945 6.06342L12.7147 10.8411C13.1828 11.1114 13.7812 10.951 14.0515 10.483C15.5827 7.83072 14.674 4.43931 12.0218 2.90803L11.6562 2.69697C9.00396 1.1657 5.61255 2.07442 4.08127 4.72667C3.81105 5.19471 3.97141 5.79319 4.43945 6.06342Z" stroke="#8692AA" stroke-width="1.2" stroke-linecap="round" stroke-linejoin="round"/>
</svg>
