<svg width="16" height="16" viewBox="0 0 16 16" fill="none" xmlns="http://www.w3.org/2000/svg">
<path d="M8.75427 9.64799C8.51454 9.75863 8.24714 9.8324 7.9613 9.8324C6.94704 9.8324 6.11719 9.00255 6.11719 7.98828C6.11719 7.70244 6.19095 7.43505 6.3016 7.19531L8.75427 9.64799Z" fill="#8692AA"/>
<path d="M14.8051 7.9931C14.3533 9.13645 13.6157 10.1323 12.6844 10.9068L10.8864 9.10879C11.0339 8.75841 11.1169 8.38959 11.1169 7.9931C11.1169 6.29651 9.73379 4.91343 8.0372 4.91343C7.64072 4.91343 7.26267 4.99641 6.92151 5.13472L5.59375 3.80696C6.34984 3.53956 7.17969 3.38281 8.0372 3.38281C11.1169 3.38281 13.7355 5.29147 14.8051 7.9931Z" fill="#8692AA"/>
<path d="M11.023 11.915C10.0918 12.3484 9.05906 12.6066 7.96181 12.6066C4.89136 12.6066 2.26349 10.6887 1.20312 7.99628C1.7287 6.65008 2.64154 5.50672 3.80333 4.69531L5.40771 6.29969C5.08499 6.78838 4.89136 7.36928 4.89136 7.99628C4.89136 9.69287 6.26522 11.0667 7.96181 11.0667C8.58881 11.0667 9.16971 10.8731 9.6584 10.5504L11.023 11.915Z" fill="#8692AA"/>
<path d="M13.0263 13.2665C12.9341 13.3495 12.8235 13.3956 12.7036 13.3956C12.5837 13.3956 12.4639 13.3495 12.3717 13.2665L11.0254 11.911L9.6608 10.5464L8.75718 9.65201L6.30451 7.19933L5.41011 6.29572L2.60706 3.49266C2.42265 3.30825 2.42265 3.02241 2.60706 2.838C2.79147 2.65359 3.07731 2.66281 3.26172 2.838L4.62637 4.20264L6.03711 5.61339L6.90385 6.48935L9.46717 9.05267L10.3339 9.9194L11.8645 11.45L13.0263 12.6118C13.2107 12.787 13.2107 13.0821 13.0263 13.2665Z" fill="#8692AA"/>
</svg>
