<svg width="16" height="16" viewBox="0 0 16 16" fill="none" xmlns="http://www.w3.org/2000/svg">
<path d="M4.00156 11.9984V9.19844M12.0016 11.9984V9.19844M11.6016 6.39844H13.2016C13.8643 6.39844 14.4016 6.93569 14.4016 7.59844V13.1984C14.4016 13.8612 13.8643 14.3984 13.2016 14.3984H2.80156C2.13882 14.3984 1.60156 13.8612 1.60156 13.1984V7.59844C1.60156 6.93569 2.13882 6.39844 2.80156 6.39844H4.40156M10.1112 3.70888L8.00093 1.59858L5.73818 3.86132M8.00093 1.59858L8.00102 6.2268M9.60156 10.3984C9.60156 9.51478 8.88522 8.79844 8.00156 8.79844C7.11791 8.79844 6.40156 9.51478 6.40156 10.3984C6.40156 11.2821 7.11791 11.9984 8.00156 11.9984C8.88522 11.9984 9.60156 11.2821 9.60156 10.3984Z" stroke="#8692AA" stroke-width="1.2" stroke-linecap="round" stroke-linejoin="round"/>
</svg>
