<svg width="16" height="16" viewBox="0 0 16 16" fill="none" xmlns="http://www.w3.org/2000/svg">
<path d="M6.89062 8.55363C7.1284 8.87151 7.43176 9.13454 7.78013 9.32487C8.1285 9.51519 8.51373 9.62838 8.90968 9.65673C9.30564 9.68509 9.70306 9.62796 10.075 9.48922C10.4469 9.35048 10.7847 9.13337 11.0653 8.85261L12.7264 7.19159C13.2306 6.66947 13.5097 5.97017 13.5034 5.24432C13.4971 4.51846 13.2059 3.82412 12.6926 3.31084C12.1794 2.79756 11.485 2.50641 10.7592 2.5001C10.0333 2.4938 9.334 2.77283 8.81187 3.27711L7.85955 4.2239" stroke="#8692AA" stroke-width="1.2" stroke-linecap="round" stroke-linejoin="round"/>
<path d="M9.10503 7.44611C8.86725 7.12823 8.56389 6.86521 8.21552 6.67488C7.86716 6.48455 7.48193 6.37137 7.08597 6.34301C6.69002 6.31465 6.29259 6.37178 5.92066 6.51053C5.54872 6.64927 5.21097 6.86638 4.93032 7.14713L3.2693 8.80815C2.76502 9.33027 2.48598 10.0296 2.49229 10.7554C2.4986 11.4813 2.78975 12.1756 3.30302 12.6889C3.8163 13.2022 4.51065 13.4933 5.2365 13.4996C5.96236 13.5059 6.66166 13.2269 7.18378 12.7226L8.13056 11.7758" stroke="#8692AA" stroke-width="1.2" stroke-linecap="round" stroke-linejoin="round"/>
</svg>
