<svg width="16" height="16" viewBox="0 0 16 16" fill="none" xmlns="http://www.w3.org/2000/svg">
<path d="M7.19844 14.4015H3.99843C3.11477 14.4015 2.39843 13.6852 2.39844 12.8015L2.3985 3.20155C2.39851 2.3179 3.11485 1.60156 3.9985 1.60156H7.59859H11.1987C12.0823 1.60156 12.7987 2.31791 12.7987 3.20156V7.60156M13.5987 11.9563L12.0349 10.4016L10.3987 12.0299M12.0349 10.4016V14.4016M5.19869 4.80156H9.99869M5.19869 7.20156H9.99869M5.19869 9.60156H7.59869" stroke="#8692AA" stroke-width="1.2" stroke-linecap="round" stroke-linejoin="round"/>
<path d="M5 1C5 0.447715 5.44772 0 6 0H9.2C9.75228 0 10.2 0.447715 10.2 1V1H5V1Z" fill="#8692AA"/>
</svg>
