<svg width="16" height="16" viewBox="0 0 16 16" fill="none" xmlns="http://www.w3.org/2000/svg">
<path d="M1.5 13.1906H2.8M2.8 13.1906H9.3M2.8 13.1906V4.22075C2.8 3.49268 2.8 3.12838 2.94169 2.85029C3.06633 2.60568 3.26506 2.40695 3.50967 2.28232C3.78775 2.14062 4.15206 2.14062 4.88013 2.14062H7.22013C7.9482 2.14062 8.31172 2.14062 8.58981 2.28232C8.83442 2.40695 9.03381 2.60568 9.15845 2.85029C9.3 3.12811 9.3 3.49197 9.3 4.21862V7.99063M9.3 13.1906H13.2M9.3 13.1906V7.99063M13.2 13.1906H14.5M13.2 13.1906V7.99063C13.2 7.3849 13.1999 7.08219 13.101 6.84329C12.969 6.52475 12.7162 6.27152 12.3977 6.13958C12.1588 6.04063 11.8556 6.04063 11.2498 6.04063C10.6441 6.04063 10.3412 6.04063 10.1023 6.13958C9.78381 6.27152 9.5309 6.52475 9.39896 6.84329C9.3 7.08219 9.3 7.3849 9.3 7.99063M4.75 6.69063H7.35M4.75 4.74063H7.35" stroke="#8692AA" stroke-width="1.2" stroke-linecap="round" stroke-linejoin="round"/>
</svg>
