<svg width="16" height="16" viewBox="0 0 16 16" fill="none" xmlns="http://www.w3.org/2000/svg">
<path d="M7.6 14.4015H3.59999C2.71634 14.4015 1.99999 13.6852 2 12.8015L2.00006 3.20155C2.00007 2.3179 2.71641 1.60156 3.60006 1.60156H10.8002C11.6839 1.60156 12.4002 2.31791 12.4002 3.20156V6.40156M13.2 13.2016L14 14.0016M4.80025 4.80156H9.60025M4.80025 7.20156H9.60025M4.80025 9.60156H7.20025M13.6 11.6016C13.6 12.7061 12.7046 13.6016 11.6 13.6016C10.4954 13.6016 9.6 12.7061 9.6 11.6016C9.6 10.497 10.4954 9.60156 11.6 9.60156C12.7046 9.60156 13.6 10.497 13.6 11.6016Z" stroke="#8692AA" stroke-width="1.2" stroke-linecap="round" stroke-linejoin="round"/>
</svg>
