<svg width="16" height="16" viewBox="0 0 16 16" fill="none" xmlns="http://www.w3.org/2000/svg">
<path d="M2.66406 8.75L2.66406 4.66667C2.66406 3.19391 3.85797 2 5.33073 2L9.41406 2M7 14C6.28535 14 7.57945 14 6.66406 14C5.83564 14 5.16406 13.3284 5.16406 12.5L5.16406 6C5.16406 5.17157 5.83564 4.5 6.66406 4.5L11.1641 4.5C11.9925 4.5 12.6641 5.17157 12.6641 6C12.6641 7.36226 12.6641 5.43538 12.6641 6.5" stroke="#8692AA" stroke-width="1.2" stroke-linecap="round"/>
<path d="M9.5 12.02L13.02 8.5L14.7 10.18L11.18 13.7H9.5V12.02Z" stroke="#8692AA" stroke-width="1.2" stroke-linejoin="round"/>
</svg>
