<svg width="16" height="16" viewBox="0 0 16 16" fill="none" xmlns="http://www.w3.org/2000/svg">
<path fill-rule="evenodd" clip-rule="evenodd" d="M9.11753 2.87751C8.83253 1.7075 7.16747 1.7075 6.88247 2.87751C6.83991 3.05333 6.75645 3.21661 6.63888 3.35408C6.5213 3.49155 6.37292 3.59931 6.20583 3.6686C6.03873 3.7379 5.85764 3.76676 5.67728 3.75284C5.49692 3.73893 5.3224 3.68263 5.16791 3.58852C4.13888 2.96151 2.96134 4.13903 3.58836 5.16805C3.99337 5.83256 3.63411 6.69957 2.87809 6.88333C1.7073 7.16758 1.7073 8.83336 2.87809 9.11686C3.05395 9.15947 3.21727 9.243 3.35474 9.36067C3.49221 9.47833 3.59994 9.6268 3.66917 9.79399C3.7384 9.96117 3.76716 10.1423 3.75312 10.3227C3.73908 10.5031 3.68263 10.6777 3.58836 10.8321C2.96134 11.8612 4.13888 13.0387 5.16791 12.4117C5.32237 12.3174 5.49691 12.2609 5.67732 12.2469C5.85772 12.2329 6.03889 12.2616 6.20608 12.3309C6.37326 12.4001 6.52174 12.5078 6.6394 12.6453C6.75707 12.7827 6.84061 12.9461 6.88321 13.1219C7.16747 14.2927 8.83328 14.2927 9.11679 13.1219C9.15953 12.9462 9.24315 12.783 9.36085 12.6456C9.47854 12.5082 9.62699 12.4005 9.79412 12.3313C9.96126 12.2621 10.1424 12.2333 10.3227 12.2473C10.5031 12.2613 10.6776 12.3176 10.8321 12.4117C11.8611 13.0387 13.0387 11.8612 12.4116 10.8321C12.3175 10.6776 12.2612 10.5031 12.2473 10.3228C12.2333 10.1424 12.2621 9.96132 12.3313 9.79419C12.4005 9.62706 12.5082 9.47861 12.6456 9.36092C12.7829 9.24323 12.9461 9.15961 13.1219 9.11686C14.2927 8.83261 14.2927 7.16683 13.1219 6.88333C12.946 6.84072 12.7827 6.75718 12.6453 6.63952C12.5078 6.52185 12.4001 6.37338 12.3308 6.2062C12.2616 6.03902 12.2328 5.85785 12.2469 5.67745C12.2609 5.49704 12.3174 5.32251 12.4116 5.16805C13.0387 4.13903 11.8611 2.96151 10.8321 3.58852C10.6776 3.68279 10.5031 3.73924 10.3227 3.75328C10.1423 3.76732 9.96111 3.73856 9.79392 3.66933C9.62674 3.6001 9.47826 3.49237 9.3606 3.3549C9.24293 3.21744 9.15939 3.05413 9.11679 2.87826L9.11753 2.87751Z" stroke="#8692AA" stroke-width="1.2" stroke-linecap="round"/>
<path d="M9.33333 8C9.33333 8.73638 8.73638 9.33333 8 9.33333C7.26362 9.33333 6.66667 8.73638 6.66667 8C6.66667 7.26362 7.26362 6.66667 8 6.66667C8.73638 6.66667 9.33333 7.26362 9.33333 8Z" stroke="#8692AA" stroke-width="1.2" stroke-linecap="round"/>
</svg>
