<svg width="16" height="16" viewBox="0 0 16 16" fill="none" xmlns="http://www.w3.org/2000/svg">
<path d="M3.87115 6.34771V9.23255M12.1135 6.34771V7.99619M6.96446 12.1174H2.63479C1.95197 12.1174 1.39844 11.5638 1.39844 10.881V5.11136C1.39844 4.42854 1.95197 3.875 2.63479 3.875H13.3499C14.0327 3.875 14.5862 4.42854 14.5862 5.11136V5.9356M9.64082 7.99619C9.64082 8.90662 8.90277 9.64467 7.99234 9.64467C7.08191 9.64467 6.34387 8.90662 6.34387 7.99619C6.34387 7.08576 7.08191 6.34771 7.99234 6.34771C8.90277 6.34771 9.64082 7.08576 9.64082 7.99619Z" stroke="#8692AA" stroke-width="1.2" stroke-linecap="round" stroke-linejoin="round"/>
<path d="M10.0547 10.8604L11.609 12.4147L15.0001 9.02344" stroke="#8692AA" stroke-width="1.2" stroke-linecap="round" stroke-linejoin="round"/>
</svg>
