<svg width="16" height="16" viewBox="0 0 16 16" fill="none" xmlns="http://www.w3.org/2000/svg">
<g clip-path="url(#clip0_8394_10869)">
<path d="M13.3879 6.96831L14.1352 6.53739C14.4897 6.33012 14.6097 5.88284 14.4079 5.5283L13.317 3.63557C13.1097 3.28648 12.6625 3.16648 12.3079 3.3683L11.5606 3.7992H11.5497L9.61881 2.69739V1.83012C9.61881 1.42103 9.29155 1.09375 8.88246 1.09375H6.70065C6.29701 1.09375 5.96428 1.42103 5.96428 1.83012V2.69739L4.03882 3.82102L3.29155 3.39011C2.93701 3.18829 2.48428 3.30829 2.28246 3.66284L1.19155 5.55012C0.989733 5.89921 1.10973 6.35194 1.46428 6.55376L2.21155 6.98467L2.22245 9.21012L1.47518 9.64103C1.12609 9.8483 1.0061 10.2956 1.20791 10.6501L2.29882 12.5374C2.50064 12.8865 2.94791 13.0065 3.30246 12.8047L4.05519 12.3737L5.9861 13.481V14.3483C5.9861 14.7519 6.31336 15.0847 6.72245 15.0847H8M10.62 13.5954C9.60468 12.58 9.60468 10.9338 10.62 9.91845C11.2619 9.27659 12.1559 9.04048 12.9832 9.21012M14.5546 10.2179C15.3035 11.2354 15.2177 12.6747 14.297 13.5954C13.6347 14.2577 12.7039 14.488 11.8549 14.2863M14.1707 10.7535L14.5546 9.91845L15.3986 10.262M10.8497 12.7003V13.6753H9.87469" stroke="#8692AA" stroke-width="1.2" stroke-linecap="round" stroke-linejoin="round"/>
<path d="M5.55457 8.33701L7.10885 9.89129L10.5 6.5" stroke="#8692AA" stroke-width="1.2" stroke-linecap="round" stroke-linejoin="round"/>
</g>
<defs>
<clipPath id="clip0_8394_10869">
<rect width="16" height="16" fill="white"/>
</clipPath>
</defs>
</svg>
