<svg width="16" height="16" viewBox="0 0 16 16" fill="none" xmlns="http://www.w3.org/2000/svg">
<path d="M5.00002 2.50001H4.40016C3.56008 2.50001 3.13972 2.50001 2.81885 2.6635C2.53661 2.80731 2.3073 3.03662 2.16349 3.31886C2 3.63973 2 4.06009 2 4.90017V5.50003M5.00002 2.50001H11.0001M5.00002 2.50001V1M11.0001 2.50001H11.6002C12.4403 2.50001 12.8598 2.50001 13.1806 2.6635C13.4629 2.80731 13.6929 3.03662 13.8368 3.31886C14.0001 3.63942 14.0001 4.05927 14.0001 4.89771V5.50003M11.0001 2.50001V1M2 5.50003V12.1002C2 12.9403 2 13.3601 2.16349 13.681C2.3073 13.9632 2.53661 14.1929 2.81885 14.3368C3.13941 14.5001 3.55926 14.5001 4.3977 14.5001H11.6024C12.4408 14.5001 12.8601 14.5001 13.1806 14.3368C13.4629 14.1929 13.6929 13.9632 13.8368 13.681C14.0001 13.3604 14.0001 12.9412 14.0001 12.1028V5.50003M2 5.50003H14.0001M11.0001 11.5001H11.0016L11.0015 11.5016L11.0001 11.5015V11.5001ZM8.00004 11.5001H8.00154L8.00151 11.5016L8.00004 11.5015V11.5001ZM5.00002 11.5001H5.00152L5.00149 11.5016L5.00002 11.5015V11.5001ZM11.0015 8.50005V8.50155L11.0001 8.50152V8.50005H11.0015ZM8.00004 8.50005H8.00154L8.00151 8.50155L8.00004 8.50152V8.50005ZM5.00002 8.50005H5.00152L5.00149 8.50155L5.00002 8.50152V8.50005Z" stroke="#8692AA" stroke-width="1.2" stroke-linecap="round" stroke-linejoin="round"/>
</svg>
