<svg width="20" height="20" viewBox="0 0 20 20" fill="none" xmlns="http://www.w3.org/2000/svg">
<path d="M11.7939 3.1543V5.77344C11.7939 6.25561 12.1848 6.64648 12.667 6.64648H15.2861M11.7939 3.1543H12.281C12.5268 3.1543 12.7609 3.25785 12.9303 3.43606C13.1848 3.70386 13.588 4.11621 13.9766 4.46387C14.2811 4.73634 14.7595 5.22534 15.046 5.52253C15.201 5.68325 15.2861 5.89784 15.2861 6.12108L15.2861 6.64648M11.7939 3.1543H5.24582M15.2861 6.64648L15.286 16.6865M3.93625 7.51953V15.3769C3.93624 16.3412 4.71799 17.123 5.68234 17.123H11.3571M15.7227 17.9961L3.5 2.28125" stroke="#8692AA" stroke-width="1.12821" stroke-linecap="round" stroke-linejoin="round"/>
</svg>
