<svg width="18" height="18" viewBox="0 0 18 18" fill="none" xmlns="http://www.w3.org/2000/svg">
<path d="M6.85986 6.80521C6.98796 6.41049 7.22261 6.05922 7.53809 5.78961C7.85356 5.52 8.23785 5.34283 8.64771 5.27781C9.05756 5.21278 9.47716 5.2623 9.8606 5.42102C10.244 5.57974 10.5761 5.84156 10.8201 6.17725C11.064 6.51293 11.2102 6.90942 11.2428 7.32312C11.2754 7.73682 11.1929 8.15159 11.0045 8.52136C10.8162 8.89113 10.5295 9.20137 10.1757 9.41821C9.82188 9.63506 9.41498 9.74982 9 9.74982V10.5002M9 15.75C5.27208 15.75 2.25 12.7279 2.25 9C2.25 5.27208 5.27208 2.25 9 2.25C12.7279 2.25 15.75 5.27208 15.75 9C15.75 12.7279 12.7279 15.75 9 15.75ZM9.03735 12.75V12.825L8.96265 12.8251V12.75H9.03735Z" stroke="#8692AA" stroke-width="1.5" stroke-linecap="round" stroke-linejoin="round"/>
</svg>
