<svg width="14" height="14" viewBox="0 0 14 14" fill="none" xmlns="http://www.w3.org/2000/svg">
<path d="M6.99707 1.16406C10.2186 1.16406 12.8309 3.77556 12.8311 6.99707C12.8311 10.2187 10.2187 12.8311 6.99707 12.8311C5.76393 12.831 4.62083 12.447 3.67871 11.7939L1.5459 12.2383C1.34035 12.2808 1.15838 12.0991 1.20117 11.8936L1.70801 9.45801C1.35956 8.71024 1.16406 7.87643 1.16406 6.99707C1.16424 3.77567 3.77567 1.16424 6.99707 1.16406Z" fill="#4C1D95"/>
<path d="M6.32218 8.62695V8.54616C6.32425 8.17122 6.35946 7.87293 6.42782 7.65128C6.49825 7.42963 6.59769 7.25148 6.72612 7.11683C6.85455 6.98011 7.01095 6.85479 7.19531 6.74086C7.32167 6.66214 7.43457 6.57617 7.534 6.48295C7.63551 6.38767 7.71526 6.28202 7.77326 6.16602C7.83126 6.04794 7.86026 5.9164 7.86026 5.7714C7.86026 5.60775 7.82194 5.46585 7.74529 5.3457C7.66865 5.22556 7.56507 5.13234 7.43457 5.06605C7.30614 4.99976 7.16217 4.96662 7.00266 4.96662C6.85559 4.96662 6.71576 4.99873 6.58319 5.06294C6.45268 5.12509 6.34393 5.22038 6.25692 5.34881C6.17199 5.47517 6.12435 5.63571 6.11399 5.83043H5.00781C5.01817 5.43685 5.11346 5.10748 5.29368 4.84233C5.47597 4.57718 5.71626 4.37831 6.01456 4.24574C6.31493 4.11316 6.64637 4.04688 7.00888 4.04688C7.40453 4.04688 7.75254 4.11627 8.05291 4.25506C8.35535 4.39385 8.59046 4.59168 8.75826 4.84854C8.92812 5.10334 9.01305 5.40578 9.01305 5.75586C9.01305 5.99201 8.97473 6.2033 8.89808 6.38974C8.82351 6.57617 8.71683 6.74189 8.57804 6.8869C8.43925 7.0319 8.27456 7.16137 8.08398 7.2753C7.91619 7.37888 7.77844 7.48659 7.67072 7.59846C7.56507 7.71032 7.48636 7.84186 7.43457 7.99308C7.38485 8.14222 7.35896 8.32659 7.35689 8.54616V8.62695H6.32218ZM6.86284 10.5659C6.6764 10.5659 6.51586 10.4996 6.38121 10.367C6.24657 10.2344 6.17924 10.0729 6.17924 9.88228C6.17924 9.69585 6.24657 9.53634 6.38121 9.40376C6.51586 9.27119 6.6764 9.2049 6.86284 9.2049C7.0472 9.2049 7.20671 9.27119 7.34135 9.40376C7.47807 9.53634 7.54643 9.69585 7.54643 9.88228C7.54643 10.0086 7.51432 10.1236 7.45011 10.2272C7.38796 10.3308 7.3051 10.4136 7.20153 10.4758C7.10002 10.5358 6.98713 10.5659 6.86284 10.5659Z" fill="white"/>
</svg>
