<svg width="18" height="18" viewBox="0 0 18 18" fill="none" xmlns="http://www.w3.org/2000/svg">
<path d="M9 1.5C13.1421 1.5 16.5 4.85786 16.5 9C16.5 13.1421 13.1421 16.5 9 16.5C7.41446 16.5 5.94477 16.0067 4.7334 15.167L1.99609 15.7373C1.73174 15.7923 1.49791 15.5583 1.55273 15.2939L2.20215 12.1689C1.75255 11.2061 1.5 10.1327 1.5 9C1.5 4.85786 4.85786 1.5 9 1.5Z" fill="#4C1D95"/>
<path d="M8.1274 11.0918V10.9879C8.13006 10.5059 8.17534 10.1223 8.26323 9.83736C8.35378 9.55238 8.48162 9.32333 8.64675 9.15021C8.81188 8.97443 9.01296 8.8133 9.25 8.66681C9.41246 8.56561 9.55762 8.45508 9.68546 8.33523C9.81596 8.21271 9.9185 8.07688 9.99307 7.92773C10.0676 7.77592 10.1049 7.6068 10.1049 7.42037C10.1049 7.20996 10.0557 7.02752 9.95712 6.87305C9.85858 6.71857 9.72541 6.59872 9.55762 6.51349C9.39249 6.42827 9.20739 6.38565 9.00231 6.38565C8.81321 6.38565 8.63343 6.42694 8.46298 6.5095C8.29519 6.5894 8.15536 6.71191 8.0435 6.87704C7.9343 7.03951 7.87305 7.24592 7.85973 7.49627H6.4375C6.45082 6.99023 6.57333 6.56676 6.80504 6.22585C7.03942 5.88494 7.34837 5.62926 7.73189 5.45881C8.11808 5.28835 8.54421 5.20312 9.0103 5.20312C9.519 5.20312 9.96644 5.29235 10.3526 5.47079C10.7415 5.64924 11.0438 5.90359 11.2595 6.23384C11.4779 6.56143 11.5871 6.95028 11.5871 7.40039C11.5871 7.70401 11.5378 7.97567 11.4393 8.21538C11.3434 8.45508 11.2062 8.66815 11.0278 8.85458C10.8493 9.04102 10.6376 9.20748 10.3926 9.35396C10.1768 9.48713 9.99973 9.62562 9.86124 9.76944C9.72541 9.91326 9.6242 10.0824 9.55762 10.2768C9.4937 10.4686 9.4604 10.7056 9.45774 10.9879V11.0918H8.1274ZM8.82253 13.5847C8.58283 13.5847 8.37642 13.4995 8.2033 13.329C8.03018 13.1586 7.94363 12.9508 7.94363 12.7058C7.94363 12.4661 8.03018 12.261 8.2033 12.0906C8.37642 11.9201 8.58283 11.8349 8.82253 11.8349C9.05957 11.8349 9.26465 11.9201 9.43777 12.0906C9.61355 12.261 9.70144 12.4661 9.70144 12.7058C9.70144 12.8683 9.66016 13.0161 9.57759 13.1492C9.49769 13.2824 9.39116 13.3889 9.25799 13.4688C9.12749 13.5461 8.98233 13.5847 8.82253 13.5847Z" fill="white"/>
</svg>
