<svg width="20" height="20" viewBox="0 0 20 20" fill="none" xmlns="http://www.w3.org/2000/svg">
<path d="M9.99707 1.66406C14.5994 1.66406 18.3311 5.39567 18.3311 9.99805C18.3308 14.6002 14.5993 18.3311 9.99707 18.3311C8.23314 18.331 6.59789 17.7818 5.25098 16.8467L2.20898 17.4805C1.91517 17.5416 1.65465 17.2811 1.71582 16.9873L2.43945 13.5098C1.94262 12.4424 1.66413 11.2529 1.66406 9.99805C1.66406 5.39575 5.3948 1.66418 9.99707 1.66406Z" fill="#4C1D95"/>
<path d="M9.03391 12.3242V12.2088C9.03687 11.6732 9.08718 11.247 9.18484 10.9304C9.28545 10.6138 9.4275 10.3593 9.61097 10.1669C9.79445 9.97159 10.0179 9.79255 10.2813 9.62979C10.4618 9.51734 10.623 9.39453 10.7651 9.26136C10.9101 9.12524 11.024 8.97431 11.1069 8.80859C11.1897 8.63992 11.2312 8.452 11.2312 8.24485C11.2312 8.01107 11.1764 7.80836 11.0669 7.63672C10.9574 7.46508 10.8095 7.33191 10.623 7.23722C10.4396 7.14252 10.2339 7.09517 10.006 7.09517C9.79593 7.09517 9.59618 7.14104 9.40678 7.23278C9.22035 7.32156 9.06499 7.45768 8.9407 7.64116C8.81937 7.82167 8.7513 8.05102 8.73651 8.32919H7.15625C7.17105 7.76693 7.30717 7.2964 7.56463 6.91761C7.82505 6.53883 8.16832 6.25473 8.59446 6.06534C9.02356 5.87595 9.49704 5.78125 10.0149 5.78125C10.5801 5.78125 11.0773 5.88039 11.5064 6.07866C11.9384 6.27693 12.2743 6.55954 12.514 6.92649C12.7567 7.29048 12.878 7.72254 12.878 8.22266C12.878 8.56001 12.8233 8.86186 12.7138 9.1282C12.6072 9.39453 12.4548 9.63127 12.2566 9.83842C12.0583 10.0456 11.823 10.2305 11.5508 10.3933C11.3111 10.5413 11.1143 10.6951 10.9604 10.8549C10.8095 11.0147 10.697 11.2027 10.623 11.4187C10.552 11.6317 10.515 11.8951 10.5121 12.2088V12.3242H9.03391ZM9.80629 15.0941C9.53995 15.0941 9.31061 14.9994 9.11825 14.81C8.9259 14.6206 8.82972 14.3898 8.82972 14.1175C8.82972 13.8512 8.9259 13.6233 9.11825 13.4339C9.31061 13.2446 9.53995 13.1499 9.80629 13.1499C10.0697 13.1499 10.2975 13.2446 10.4899 13.4339C10.6852 13.6233 10.7828 13.8512 10.7828 14.1175C10.7828 14.2981 10.737 14.4623 10.6452 14.6103C10.5565 14.7582 10.4381 14.8766 10.2901 14.9654C10.1451 15.0512 9.98384 15.0941 9.80629 15.0941Z" fill="white"/>
</svg>
