<svg width="18" height="18" viewBox="0 0 18 18" fill="none" xmlns="http://www.w3.org/2000/svg">
<path d="M11.25 12.75V13.5C11.25 14.7426 10.2426 15.75 9 15.75C7.75736 15.75 6.75 14.7426 6.75 13.5V12.75M11.25 12.75H6.75M11.25 12.75H13.9429C14.2298 12.75 14.3739 12.75 14.4901 12.7108C14.712 12.636 14.8856 12.4617 14.9604 12.2398C14.9998 12.1232 14.9998 11.9786 14.9998 11.6895C14.9998 11.5629 14.9996 11.4997 14.9897 11.4393C14.971 11.3253 14.9268 11.2173 14.8594 11.1234C14.8238 11.0738 14.7786 11.0286 14.6894 10.9394L14.3972 10.6472C14.303 10.553 14.25 10.4251 14.25 10.2918V7.5C14.25 4.6005 11.8995 2.24999 9 2.25C6.10051 2.25001 3.75 4.60051 3.75 7.5V10.2918C3.75 10.4251 3.69693 10.553 3.60267 10.6472L3.31055 10.9393C3.22107 11.0288 3.17628 11.0738 3.14062 11.1234C3.07324 11.2173 3.02861 11.3253 3.0099 11.4393C3 11.4997 3 11.5629 3 11.6895C3 11.9786 3 12.1232 3.03934 12.2398C3.11419 12.4617 3.2886 12.636 3.5105 12.7108C3.62667 12.75 3.77026 12.75 4.05717 12.75H6.75" stroke="#8692AA" stroke-width="1.5" stroke-linecap="round" stroke-linejoin="round"/>
</svg>
